<mxfile host="app.diagrams.net" modified="2024-03-10T18:35:07.831Z" agent="Mozilla/5.0 (Windows NT 10.0; Win64; x64) AppleWebKit/537.36 (KHTML, like Gecko) Chrome/122.0.0.0 Safari/537.36 Edg/122.0.0.0" etag="iPBRbdS1UqgV_EAYX0p2" version="24.0.2" type="github">
  <diagram name="第 1 页" id="L9CurAf0SqhRf8DqzAfi">
    <mxGraphModel dx="4088" dy="2616" grid="1" gridSize="10" guides="1" tooltips="1" connect="1" arrows="1" fold="1" page="1" pageScale="1" pageWidth="827" pageHeight="1169" background="none" math="0" shadow="0">
      <root>
        <mxCell id="0" />
        <mxCell id="1" parent="0" />
        <mxCell id="MEvPqugxAyHAMDOJD42g-33" value="" style="rounded=0;whiteSpace=wrap;html=1;fillColor=none;" vertex="1" parent="1">
          <mxGeometry x="40" y="60" width="1570" height="1790" as="geometry" />
        </mxCell>
        <mxCell id="MEvPqugxAyHAMDOJD42g-28" value="" style="rounded=0;whiteSpace=wrap;html=1;dashed=1;dashPattern=8 8;fillColor=none;fontColor=#000000;labelBorderColor=#FFFFFF;fontSize=30;fontFamily=宋体;" vertex="1" parent="1">
          <mxGeometry x="469" y="90" width="1101" height="210" as="geometry" />
        </mxCell>
        <mxCell id="MEvPqugxAyHAMDOJD42g-25" value="" style="rounded=0;whiteSpace=wrap;html=1;dashed=1;dashPattern=8 8;fillColor=none;fontColor=#000000;labelBorderColor=#FFFFFF;fontSize=40;fontFamily=宋体;" vertex="1" parent="1">
          <mxGeometry x="470" y="340" width="1100" height="240" as="geometry" />
        </mxCell>
        <mxCell id="MEvPqugxAyHAMDOJD42g-19" value="" style="rounded=0;whiteSpace=wrap;html=1;dashed=1;dashPattern=8 8;fillColor=none;fontColor=#000000;labelBorderColor=#FFFFFF;fontSize=40;fontFamily=宋体;" vertex="1" parent="1">
          <mxGeometry x="470" y="632" width="1100" height="350" as="geometry" />
        </mxCell>
        <mxCell id="aaDHrNwLbiFYx0zAx5dH-23" value="" style="shape=flexArrow;endArrow=classic;html=1;rounded=0;exitX=0.5;exitY=1;exitDx=0;exitDy=0;endWidth=63;endSize=7.25;width=48;entryX=0.5;entryY=0;entryDx=0;entryDy=0;fontColor=#000000;labelBorderColor=#FFFFFF;fontSize=30;fontFamily=宋体;" parent="1" source="aaDHrNwLbiFYx0zAx5dH-1" target="aaDHrNwLbiFYx0zAx5dH-17" edge="1">
          <mxGeometry width="50" height="50" relative="1" as="geometry">
            <mxPoint x="459.5" y="260" as="sourcePoint" />
            <mxPoint x="459.5" y="320" as="targetPoint" />
            <Array as="points" />
          </mxGeometry>
        </mxCell>
        <mxCell id="aaDHrNwLbiFYx0zAx5dH-40" value="" style="shape=flexArrow;endArrow=classic;html=1;rounded=0;exitX=0.5;exitY=1;exitDx=0;exitDy=0;endWidth=63;endSize=7.25;width=48;entryX=0.5;entryY=0;entryDx=0;entryDy=0;fontColor=#000000;labelBorderColor=#FFFFFF;fontSize=40;fontFamily=宋体;" parent="1" source="aaDHrNwLbiFYx0zAx5dH-17" target="aaDHrNwLbiFYx0zAx5dH-42" edge="1">
          <mxGeometry width="50" height="50" relative="1" as="geometry">
            <mxPoint x="459.5" y="490" as="sourcePoint" />
            <mxPoint x="459.5" y="550" as="targetPoint" />
            <Array as="points" />
          </mxGeometry>
        </mxCell>
        <mxCell id="aaDHrNwLbiFYx0zAx5dH-58" value="" style="shape=flexArrow;endArrow=classic;html=1;rounded=0;endWidth=63;endSize=7.25;width=48;fontColor=#000000;labelBorderColor=#FFFFFF;fontSize=40;fontFamily=宋体;exitX=0.5;exitY=1;exitDx=0;exitDy=0;entryX=0.5;entryY=0;entryDx=0;entryDy=0;" parent="1" source="aaDHrNwLbiFYx0zAx5dH-42" target="aaDHrNwLbiFYx0zAx5dH-60" edge="1">
          <mxGeometry width="50" height="50" relative="1" as="geometry">
            <mxPoint x="490" y="770" as="sourcePoint" />
            <mxPoint x="459.5" y="830" as="targetPoint" />
            <Array as="points" />
          </mxGeometry>
        </mxCell>
        <mxCell id="aaDHrNwLbiFYx0zAx5dH-73" value="" style="shape=flexArrow;endArrow=classic;html=1;rounded=0;exitX=0.5;exitY=1;exitDx=0;exitDy=0;endWidth=63;endSize=7.25;width=48;entryX=0.5;entryY=0;entryDx=0;entryDy=0;fontColor=#000000;labelBorderColor=#FFFFFF;fontSize=40;fontFamily=宋体;" parent="1" source="aaDHrNwLbiFYx0zAx5dH-60" target="MEvPqugxAyHAMDOJD42g-4" edge="1">
          <mxGeometry width="50" height="50" relative="1" as="geometry">
            <mxPoint x="689.9999999999995" y="1330" as="sourcePoint" />
            <mxPoint x="469.5" y="1380" as="targetPoint" />
            <Array as="points" />
          </mxGeometry>
        </mxCell>
        <mxCell id="aaDHrNwLbiFYx0zAx5dH-106" value="" style="edgeStyle=orthogonalEdgeStyle;rounded=0;orthogonalLoop=1;jettySize=auto;html=1;exitX=0.5;exitY=1;exitDx=0;exitDy=0;strokeColor=none;fontColor=#000000;" parent="1" target="aaDHrNwLbiFYx0zAx5dH-105" edge="1">
          <mxGeometry relative="1" as="geometry">
            <mxPoint x="985.4838709677418" y="2470" as="targetPoint" />
            <Array as="points" />
            <mxPoint x="1120.967741935484" y="3290" as="sourcePoint" />
          </mxGeometry>
        </mxCell>
        <mxCell id="aaDHrNwLbiFYx0zAx5dH-42" value="" style="rounded=0;whiteSpace=wrap;html=1;dashed=1;dashPattern=8 8;fillColor=none;fontColor=#000000;labelBorderColor=#FFFFFF;fontSize=40;fontFamily=宋体;" parent="1" vertex="1">
          <mxGeometry x="70" y="648" width="310" height="320" as="geometry" />
        </mxCell>
        <mxCell id="aaDHrNwLbiFYx0zAx5dH-43" value="第3章&lt;div style=&quot;font-size: 40px;&quot;&gt;基于克隆自适应蚁群优化算法的物流配送路径规划&lt;/div&gt;" style="rounded=0;whiteSpace=wrap;html=1;fillColor=none;strokeColor=none;fontColor=#000000;labelBorderColor=#FFFFFF;fontSize=40;fontFamily=宋体;" parent="1" vertex="1">
          <mxGeometry x="95" y="732" width="260" height="150" as="geometry" />
        </mxCell>
        <mxCell id="aaDHrNwLbiFYx0zAx5dH-46" value="多目标物流配送模型" style="rounded=0;whiteSpace=wrap;html=1;fillColor=none;strokeColor=default;fontColor=#000000;labelBorderColor=#FFFFFF;fontSize=40;fontFamily=宋体;" parent="1" vertex="1">
          <mxGeometry x="516" y="660" width="244" height="126" as="geometry" />
        </mxCell>
        <mxCell id="aaDHrNwLbiFYx0zAx5dH-48" value="克隆自适应蚁群优化算法" style="rounded=0;whiteSpace=wrap;html=1;fillColor=none;strokeColor=default;fontColor=#000000;labelBorderColor=#FFFFFF;fontSize=40;fontFamily=宋体;" parent="1" vertex="1">
          <mxGeometry x="516" y="816" width="244" height="134" as="geometry" />
        </mxCell>
        <mxCell id="MEvPqugxAyHAMDOJD42g-9" value="" style="group;fontSize=40;fontFamily=宋体;" vertex="1" connectable="0" parent="1">
          <mxGeometry x="70" y="1379" width="1530" height="449.5" as="geometry" />
        </mxCell>
        <mxCell id="MEvPqugxAyHAMDOJD42g-4" value="" style="rounded=0;whiteSpace=wrap;html=1;dashed=1;dashPattern=8 8;fillColor=none;fontColor=#000000;labelBorderColor=#FFFFFF;fontSize=40;fontFamily=宋体;" vertex="1" parent="MEvPqugxAyHAMDOJD42g-9">
          <mxGeometry width="315" height="439.5" as="geometry" />
        </mxCell>
        <mxCell id="MEvPqugxAyHAMDOJD42g-3" value="" style="rounded=0;whiteSpace=wrap;html=1;dashed=1;dashPattern=8 8;fillColor=none;fontColor=#000000;labelBorderColor=#FFFFFF;fontSize=40;fontFamily=宋体;" vertex="1" parent="MEvPqugxAyHAMDOJD42g-9">
          <mxGeometry x="400" y="-10" width="1100" height="459.5" as="geometry" />
        </mxCell>
        <mxCell id="aaDHrNwLbiFYx0zAx5dH-76" value="第5章&lt;div style=&quot;font-size: 40px;&quot;&gt;基于启发式算法的物流配送路径规划系统设计与实现&lt;/div&gt;" style="rounded=0;whiteSpace=wrap;html=1;fillColor=none;strokeColor=none;fontColor=#000000;labelBorderColor=#FFFFFF;fontSize=40;fontFamily=宋体;" parent="MEvPqugxAyHAMDOJD42g-9" vertex="1">
          <mxGeometry x="32.5" y="87" width="250" height="225" as="geometry" />
        </mxCell>
        <mxCell id="aaDHrNwLbiFYx0zAx5dH-98" value="系统非功能性需求分析" style="rounded=0;whiteSpace=wrap;html=1;fillColor=none;strokeColor=default;fontColor=#000000;labelBorderColor=#FFFFFF;fontSize=40;fontFamily=宋体;" parent="MEvPqugxAyHAMDOJD42g-9" vertex="1">
          <mxGeometry x="430" y="239.5" width="220" height="120" as="geometry" />
        </mxCell>
        <mxCell id="aaDHrNwLbiFYx0zAx5dH-99" style="edgeStyle=orthogonalEdgeStyle;rounded=0;orthogonalLoop=1;jettySize=auto;html=1;fontColor=#000000;labelBorderColor=#FFFFFF;fontSize=40;fontFamily=宋体;" parent="MEvPqugxAyHAMDOJD42g-9" source="aaDHrNwLbiFYx0zAx5dH-98" target="aaDHrNwLbiFYx0zAx5dH-84" edge="1">
          <mxGeometry relative="1" as="geometry" />
        </mxCell>
        <mxCell id="aaDHrNwLbiFYx0zAx5dH-82" value="系统功能性&lt;span style=&quot;background-color: initial;&quot;&gt;需求分析&lt;/span&gt;" style="rounded=0;whiteSpace=wrap;html=1;fillColor=none;strokeColor=default;fontColor=#000000;labelBorderColor=#FFFFFF;fontSize=40;fontFamily=宋体;" parent="MEvPqugxAyHAMDOJD42g-9" vertex="1">
          <mxGeometry x="430" y="79.5" width="220" height="120" as="geometry" />
        </mxCell>
        <mxCell id="aaDHrNwLbiFYx0zAx5dH-93" style="edgeStyle=orthogonalEdgeStyle;rounded=0;orthogonalLoop=1;jettySize=auto;html=1;entryX=0;entryY=0.5;entryDx=0;entryDy=0;fontColor=#000000;labelBorderColor=#FFFFFF;fontSize=40;fontFamily=宋体;" parent="MEvPqugxAyHAMDOJD42g-9" source="aaDHrNwLbiFYx0zAx5dH-82" target="aaDHrNwLbiFYx0zAx5dH-84" edge="1">
          <mxGeometry relative="1" as="geometry" />
        </mxCell>
        <mxCell id="aaDHrNwLbiFYx0zAx5dH-77" style="edgeStyle=orthogonalEdgeStyle;rounded=0;orthogonalLoop=1;jettySize=auto;html=1;exitX=0.5;exitY=1;exitDx=0;exitDy=0;strokeColor=none;fontColor=#000000;labelBorderColor=#FFFFFF;fontSize=40;fontFamily=宋体;" parent="MEvPqugxAyHAMDOJD42g-9" edge="1" source="aaDHrNwLbiFYx0zAx5dH-101">
          <mxGeometry relative="1" as="geometry">
            <mxPoint x="997.4516129032257" y="269.5" as="targetPoint" />
            <Array as="points">
              <mxPoint x="1210.3548387096773" y="79.5" />
              <mxPoint x="1210.3548387096773" y="199.5" />
              <mxPoint x="1094.2258064516127" y="199.5" />
            </Array>
            <mxPoint x="1190.9999999999998" y="199.50000000000023" as="sourcePoint" />
          </mxGeometry>
        </mxCell>
        <mxCell id="aaDHrNwLbiFYx0zAx5dH-84" value="系统架构设计" style="rounded=0;whiteSpace=wrap;html=1;fillColor=none;strokeColor=default;fontColor=#000000;labelBorderColor=#FFFFFF;fontSize=40;fontFamily=宋体;" parent="MEvPqugxAyHAMDOJD42g-9" vertex="1">
          <mxGeometry x="706" y="64.75" width="70" height="310" as="geometry" />
        </mxCell>
        <mxCell id="aaDHrNwLbiFYx0zAx5dH-86" value="" style="edgeStyle=orthogonalEdgeStyle;rounded=0;orthogonalLoop=1;jettySize=auto;html=1;exitX=0.5;exitY=1;exitDx=0;exitDy=0;strokeColor=none;fontColor=#000000;labelBorderColor=#FFFFFF;fontSize=40;fontFamily=宋体;" parent="MEvPqugxAyHAMDOJD42g-9" source="aaDHrNwLbiFYx0zAx5dH-100" edge="1">
          <mxGeometry relative="1" as="geometry">
            <mxPoint x="1218.5999999999997" y="199.50000000000023" as="targetPoint" />
            <Array as="points" />
            <mxPoint x="1354.0838709677419" y="1019.5" as="sourcePoint" />
          </mxGeometry>
        </mxCell>
        <mxCell id="aaDHrNwLbiFYx0zAx5dH-142" style="edgeStyle=orthogonalEdgeStyle;rounded=0;orthogonalLoop=1;jettySize=auto;html=1;entryX=0;entryY=0.5;entryDx=0;entryDy=0;fontSize=40;fontFamily=宋体;" parent="MEvPqugxAyHAMDOJD42g-9" source="aaDHrNwLbiFYx0zAx5dH-100" target="aaDHrNwLbiFYx0zAx5dH-105" edge="1">
          <mxGeometry relative="1" as="geometry" />
        </mxCell>
        <mxCell id="aaDHrNwLbiFYx0zAx5dH-105" value="物流配送路径规划系统调试" style="rounded=0;whiteSpace=wrap;html=1;fillColor=none;strokeColor=default;fontColor=#000000;labelBorderColor=#FFFFFF;fontSize=40;fontFamily=宋体;" parent="MEvPqugxAyHAMDOJD42g-9" vertex="1">
          <mxGeometry x="1362" y="79.5" width="120" height="290" as="geometry" />
        </mxCell>
        <mxCell id="aaDHrNwLbiFYx0zAx5dH-143" value="" style="edgeStyle=orthogonalEdgeStyle;rounded=0;orthogonalLoop=1;jettySize=auto;html=1;exitX=0.5;exitY=1;exitDx=0;exitDy=0;strokeColor=none;fontColor=#000000;labelBorderColor=#FFFFFF;fontSize=40;fontFamily=宋体;" parent="MEvPqugxAyHAMDOJD42g-9" source="aaDHrNwLbiFYx0zAx5dH-105" target="aaDHrNwLbiFYx0zAx5dH-100" edge="1">
          <mxGeometry relative="1" as="geometry">
            <mxPoint x="859.9999999999998" y="1349.5" as="targetPoint" />
            <Array as="points">
              <mxPoint x="1520" y="389.5" />
              <mxPoint x="1379" y="389.5" />
              <mxPoint x="1379" y="249.5" />
            </Array>
            <mxPoint x="838.0487804878048" y="1549.5" as="sourcePoint" />
          </mxGeometry>
        </mxCell>
        <mxCell id="aaDHrNwLbiFYx0zAx5dH-90" value="用户&lt;div style=&quot;font-size: 40px;&quot;&gt;功能设计&lt;/div&gt;" style="rounded=0;whiteSpace=wrap;html=1;fillColor=none;strokeColor=default;fontColor=#000000;labelBorderColor=#FFFFFF;fontSize=40;fontFamily=宋体;" parent="MEvPqugxAyHAMDOJD42g-9" vertex="1">
          <mxGeometry x="830" y="240" width="190" height="109.5" as="geometry" />
        </mxCell>
        <mxCell id="aaDHrNwLbiFYx0zAx5dH-102" style="edgeStyle=orthogonalEdgeStyle;rounded=0;orthogonalLoop=1;jettySize=auto;html=1;entryX=0;entryY=0.5;entryDx=0;entryDy=0;fontColor=#000000;labelBorderColor=#FFFFFF;fontSize=40;fontFamily=宋体;exitX=1;exitY=0.5;exitDx=0;exitDy=0;" parent="MEvPqugxAyHAMDOJD42g-9" source="aaDHrNwLbiFYx0zAx5dH-90" target="aaDHrNwLbiFYx0zAx5dH-100" edge="1">
          <mxGeometry relative="1" as="geometry" />
        </mxCell>
        <mxCell id="aaDHrNwLbiFYx0zAx5dH-94" style="edgeStyle=orthogonalEdgeStyle;rounded=0;orthogonalLoop=1;jettySize=auto;html=1;entryX=0;entryY=0.5;entryDx=0;entryDy=0;fontColor=#000000;labelBorderColor=#FFFFFF;fontSize=40;fontFamily=宋体;exitX=1;exitY=0.5;exitDx=0;exitDy=0;" parent="MEvPqugxAyHAMDOJD42g-9" source="aaDHrNwLbiFYx0zAx5dH-84" target="aaDHrNwLbiFYx0zAx5dH-90" edge="1">
          <mxGeometry relative="1" as="geometry">
            <mxPoint x="870" y="229.5" as="sourcePoint" />
          </mxGeometry>
        </mxCell>
        <mxCell id="aaDHrNwLbiFYx0zAx5dH-96" value="管理员&lt;div style=&quot;font-size: 40px;&quot;&gt;功能设计&lt;/div&gt;" style="rounded=0;whiteSpace=wrap;html=1;fillColor=none;strokeColor=default;fontColor=#000000;labelBorderColor=#FFFFFF;fontSize=40;fontFamily=宋体;" parent="MEvPqugxAyHAMDOJD42g-9" vertex="1">
          <mxGeometry x="830" y="84.75" width="190" height="109.5" as="geometry" />
        </mxCell>
        <mxCell id="aaDHrNwLbiFYx0zAx5dH-97" style="edgeStyle=orthogonalEdgeStyle;rounded=0;orthogonalLoop=1;jettySize=auto;html=1;fontColor=#000000;labelBorderColor=#FFFFFF;fontSize=40;fontFamily=宋体;exitX=1;exitY=0.5;exitDx=0;exitDy=0;" parent="MEvPqugxAyHAMDOJD42g-9" source="aaDHrNwLbiFYx0zAx5dH-84" target="aaDHrNwLbiFYx0zAx5dH-96" edge="1">
          <mxGeometry relative="1" as="geometry">
            <mxPoint x="791" y="197" as="sourcePoint" />
          </mxGeometry>
        </mxCell>
        <mxCell id="aaDHrNwLbiFYx0zAx5dH-104" style="edgeStyle=orthogonalEdgeStyle;rounded=0;orthogonalLoop=1;jettySize=auto;html=1;entryX=0;entryY=0.5;entryDx=0;entryDy=0;fontColor=#000000;labelBorderColor=#FFFFFF;fontSize=40;fontFamily=宋体;" parent="MEvPqugxAyHAMDOJD42g-9" source="aaDHrNwLbiFYx0zAx5dH-96" target="aaDHrNwLbiFYx0zAx5dH-100" edge="1">
          <mxGeometry relative="1" as="geometry" />
        </mxCell>
        <mxCell id="aaDHrNwLbiFYx0zAx5dH-100" value="管理员模块" style="rounded=0;whiteSpace=wrap;html=1;fillColor=none;strokeColor=default;fontColor=#000000;labelBorderColor=#FFFFFF;fontSize=40;fontFamily=宋体;" parent="MEvPqugxAyHAMDOJD42g-9" vertex="1">
          <mxGeometry x="1074" y="179.75" width="220" height="90" as="geometry" />
        </mxCell>
        <mxCell id="MEvPqugxAyHAMDOJD42g-24" value="" style="shape=flexArrow;endArrow=classic;html=1;rounded=0;exitX=1;exitY=0.5;exitDx=0;exitDy=0;endWidth=63;endSize=7.25;width=48;fontColor=#000000;labelBorderColor=#FFFFFF;fontSize=40;fontFamily=宋体;entryX=0;entryY=0.5;entryDx=0;entryDy=0;" edge="1" parent="MEvPqugxAyHAMDOJD42g-9" source="MEvPqugxAyHAMDOJD42g-4" target="MEvPqugxAyHAMDOJD42g-3">
          <mxGeometry width="50" height="50" relative="1" as="geometry">
            <mxPoint x="321" y="-220.5" as="sourcePoint" />
            <mxPoint x="410" y="-220.5" as="targetPoint" />
            <Array as="points" />
          </mxGeometry>
        </mxCell>
        <mxCell id="MEvPqugxAyHAMDOJD42g-10" value="" style="group;fontSize=40;fontFamily=宋体;" vertex="1" connectable="0" parent="1">
          <mxGeometry x="71" y="1050" width="1550" height="260" as="geometry" />
        </mxCell>
        <mxCell id="MEvPqugxAyHAMDOJD42g-8" value="" style="rounded=0;whiteSpace=wrap;html=1;dashed=1;dashPattern=8 8;fillColor=none;fontColor=#000000;labelBorderColor=#FFFFFF;fontSize=40;fontFamily=宋体;" vertex="1" parent="MEvPqugxAyHAMDOJD42g-10">
          <mxGeometry x="399" y="-15.294117647058824" width="1101" height="275.29411764705884" as="geometry" />
        </mxCell>
        <mxCell id="aaDHrNwLbiFYx0zAx5dH-59" value="" style="group;fontColor=#000000;labelBorderColor=#FFFFFF;fontSize=40;fontFamily=宋体;" parent="MEvPqugxAyHAMDOJD42g-10" vertex="1" connectable="0">
          <mxGeometry width="310" height="260" as="geometry" />
        </mxCell>
        <mxCell id="aaDHrNwLbiFYx0zAx5dH-60" value="" style="rounded=0;whiteSpace=wrap;html=1;dashed=1;dashPattern=8 8;fillColor=none;fontColor=#000000;labelBorderColor=#FFFFFF;fontSize=40;fontFamily=宋体;" parent="aaDHrNwLbiFYx0zAx5dH-59" vertex="1">
          <mxGeometry width="310" height="244.7058823529412" as="geometry" />
        </mxCell>
        <mxCell id="aaDHrNwLbiFYx0zAx5dH-62" style="edgeStyle=orthogonalEdgeStyle;rounded=0;orthogonalLoop=1;jettySize=auto;html=1;exitX=0.5;exitY=1;exitDx=0;exitDy=0;strokeColor=none;fontColor=#000000;labelBorderColor=#FFFFFF;fontSize=40;fontFamily=宋体;" parent="aaDHrNwLbiFYx0zAx5dH-59" edge="1" source="aaDHrNwLbiFYx0zAx5dH-61">
          <mxGeometry relative="1" as="geometry">
            <mxPoint x="71.83448275862067" y="240.8823529411765" as="targetPoint" />
            <Array as="points">
              <mxPoint x="109.46206896551723" y="71.37254901960783" />
              <mxPoint x="109.46206896551723" y="178.43137254901958" />
              <mxPoint x="88.93793103448273" y="178.43137254901958" />
            </Array>
            <mxPoint x="106.04137931034484" y="71.37254901960783" as="sourcePoint" />
          </mxGeometry>
        </mxCell>
        <mxCell id="aaDHrNwLbiFYx0zAx5dH-61" value="第4章&lt;div style=&quot;font-size: 40px;&quot;&gt;分群多目标物流配送路径规划策略&lt;/div&gt;" style="rounded=0;whiteSpace=wrap;html=1;fillColor=none;strokeColor=none;fontColor=#000000;labelBorderColor=#FFFFFF;fontSize=40;fontFamily=宋体;" parent="aaDHrNwLbiFYx0zAx5dH-59" vertex="1">
          <mxGeometry x="30" y="56.083529411764694" width="250" height="132.5464705882353" as="geometry" />
        </mxCell>
        <mxCell id="MEvPqugxAyHAMDOJD42g-6" style="edgeStyle=orthogonalEdgeStyle;rounded=0;orthogonalLoop=1;jettySize=auto;html=1;entryX=0;entryY=0.5;entryDx=0;entryDy=0;fontSize=40;fontFamily=宋体;" edge="1" parent="MEvPqugxAyHAMDOJD42g-10" source="aaDHrNwLbiFYx0zAx5dH-67" target="aaDHrNwLbiFYx0zAx5dH-70">
          <mxGeometry relative="1" as="geometry" />
        </mxCell>
        <mxCell id="aaDHrNwLbiFYx0zAx5dH-67" value="分群多目标&lt;div&gt;物流配送模型&lt;/div&gt;" style="rounded=0;whiteSpace=wrap;html=1;fillColor=none;strokeColor=default;fontColor=#000000;labelBorderColor=#FFFFFF;fontSize=40;fontFamily=宋体;" parent="MEvPqugxAyHAMDOJD42g-10" vertex="1">
          <mxGeometry x="449" y="38.24" width="271" height="152.94" as="geometry" />
        </mxCell>
        <mxCell id="aaDHrNwLbiFYx0zAx5dH-70" value="基于分群克隆自适应蚁群优化算法的物流配送路径规划仿真实验" style="rounded=0;whiteSpace=wrap;html=1;fillColor=none;strokeColor=default;fontColor=#000000;labelBorderColor=#FFFFFF;fontSize=40;fontFamily=宋体;" parent="MEvPqugxAyHAMDOJD42g-10" vertex="1">
          <mxGeometry x="810" y="30.59" width="650" height="168.24" as="geometry" />
        </mxCell>
        <mxCell id="MEvPqugxAyHAMDOJD42g-21" value="" style="shape=flexArrow;endArrow=classic;html=1;rounded=0;exitX=1;exitY=0.5;exitDx=0;exitDy=0;endWidth=63;endSize=7.25;width=48;fontColor=#000000;labelBorderColor=#FFFFFF;fontSize=40;fontFamily=宋体;" edge="1" parent="MEvPqugxAyHAMDOJD42g-10" source="aaDHrNwLbiFYx0zAx5dH-60" target="MEvPqugxAyHAMDOJD42g-8">
          <mxGeometry width="50" height="50" relative="1" as="geometry">
            <mxPoint x="379" y="252.35294117647055" as="sourcePoint" />
            <mxPoint x="381" y="306.6470588235294" as="targetPoint" />
            <Array as="points" />
          </mxGeometry>
        </mxCell>
        <mxCell id="aaDHrNwLbiFYx0zAx5dH-19" value="启发式算法" style="rounded=0;whiteSpace=wrap;html=1;fillColor=none;strokeColor=default;fontColor=#000000;labelBorderColor=#FFFFFF;fontSize=40;fontFamily=宋体;" parent="1" vertex="1">
          <mxGeometry x="1035.999677419355" y="488" width="348.38709677419354" height="70" as="geometry" />
        </mxCell>
        <mxCell id="aaDHrNwLbiFYx0zAx5dH-21" value="物流配送路径规划问题" style="rounded=0;whiteSpace=wrap;html=1;fillColor=none;strokeColor=default;fontColor=#000000;labelBorderColor=#FFFFFF;fontSize=40;fontFamily=宋体;" parent="1" vertex="1">
          <mxGeometry x="686" y="365" width="542.58" height="70" as="geometry" />
        </mxCell>
        <mxCell id="aaDHrNwLbiFYx0zAx5dH-20" value="分群算法" style="rounded=0;whiteSpace=wrap;html=1;fillColor=none;strokeColor=default;fontColor=#000000;labelBorderColor=#FFFFFF;fontSize=40;fontFamily=宋体;" parent="1" vertex="1">
          <mxGeometry x="549.9983870967742" y="488" width="348.38709677419354" height="70" as="geometry" />
        </mxCell>
        <mxCell id="aaDHrNwLbiFYx0zAx5dH-30" style="edgeStyle=orthogonalEdgeStyle;rounded=0;orthogonalLoop=1;jettySize=auto;html=1;fontColor=#000000;labelBorderColor=#FFFFFF;fontSize=40;fontFamily=宋体;" parent="1" source="aaDHrNwLbiFYx0zAx5dH-21" target="aaDHrNwLbiFYx0zAx5dH-19" edge="1">
          <mxGeometry relative="1" as="geometry" />
        </mxCell>
        <mxCell id="aaDHrNwLbiFYx0zAx5dH-28" value="" style="edgeStyle=orthogonalEdgeStyle;rounded=0;orthogonalLoop=1;jettySize=auto;html=1;fontColor=#000000;labelBorderColor=#FFFFFF;fontSize=40;fontFamily=宋体;" parent="1" source="aaDHrNwLbiFYx0zAx5dH-21" target="aaDHrNwLbiFYx0zAx5dH-20" edge="1">
          <mxGeometry relative="1" as="geometry" />
        </mxCell>
        <mxCell id="aaDHrNwLbiFYx0zAx5dH-17" value="" style="rounded=0;whiteSpace=wrap;html=1;dashed=1;dashPattern=8 8;fillColor=none;fontColor=#000000;labelBorderColor=#FFFFFF;fontSize=40;fontFamily=宋体;" parent="1" vertex="1">
          <mxGeometry x="70" y="360" width="309" height="203" as="geometry" />
        </mxCell>
        <mxCell id="aaDHrNwLbiFYx0zAx5dH-18" value="第2章&lt;div style=&quot;font-size: 40px;&quot;&gt;物流配送路径规划理论与基础&lt;/div&gt;" style="rounded=0;whiteSpace=wrap;html=1;fillColor=none;strokeColor=none;fontColor=#000000;labelBorderColor=#FFFFFF;fontSize=40;fontFamily=宋体;" parent="1" vertex="1">
          <mxGeometry x="106" y="420" width="238" height="100" as="geometry" />
        </mxCell>
        <mxCell id="aaDHrNwLbiFYx0zAx5dH-14" value="&lt;font style=&quot;font-size: 40px;&quot;&gt;课题研究背景与意义&lt;/font&gt;" style="rounded=0;whiteSpace=wrap;html=1;fillColor=none;strokeColor=default;fontColor=#000000;labelBorderColor=#FFFFFF;fontSize=30;fontFamily=宋体;" parent="1" vertex="1">
          <mxGeometry x="600" y="109.5" width="400" height="70" as="geometry" />
        </mxCell>
        <mxCell id="aaDHrNwLbiFYx0zAx5dH-15" value="&lt;font style=&quot;font-size: 40px;&quot;&gt;国内外研究现状&lt;/font&gt;" style="rounded=0;whiteSpace=wrap;html=1;fillColor=none;strokeColor=default;fontColor=#000000;labelBorderColor=#FFFFFF;fontSize=30;fontFamily=宋体;" parent="1" vertex="1">
          <mxGeometry x="1060" y="110" width="360" height="70" as="geometry" />
        </mxCell>
        <mxCell id="aaDHrNwLbiFYx0zAx5dH-13" value="&lt;font style=&quot;font-size: 40px;&quot;&gt;论文研究内容&lt;/font&gt;" style="rounded=0;whiteSpace=wrap;html=1;fillColor=none;strokeColor=default;fontColor=#000000;labelBorderColor=#FFFFFF;fontSize=30;fontFamily=宋体;" parent="1" vertex="1">
          <mxGeometry x="600" y="216" width="400" height="70" as="geometry" />
        </mxCell>
        <mxCell id="aaDHrNwLbiFYx0zAx5dH-16" value="&lt;font style=&quot;font-size: 40px;&quot;&gt;论文结构安排&lt;/font&gt;" style="rounded=0;whiteSpace=wrap;html=1;fillColor=none;strokeColor=default;fontColor=#000000;labelBorderColor=#FFFFFF;fontSize=30;fontFamily=宋体;" parent="1" vertex="1">
          <mxGeometry x="1060" y="216" width="360" height="70" as="geometry" />
        </mxCell>
        <mxCell id="MEvPqugxAyHAMDOJD42g-29" value="" style="shape=flexArrow;endArrow=classic;html=1;rounded=0;exitX=1;exitY=0.5;exitDx=0;exitDy=0;endWidth=63;endSize=7.25;width=48;fontColor=#000000;labelBorderColor=#FFFFFF;fontSize=40;fontFamily=宋体;entryX=0;entryY=0.5;entryDx=0;entryDy=0;" edge="1" parent="1" source="aaDHrNwLbiFYx0zAx5dH-42" target="MEvPqugxAyHAMDOJD42g-19">
          <mxGeometry width="50" height="50" relative="1" as="geometry">
            <mxPoint x="391" y="1220" as="sourcePoint" />
            <mxPoint x="480" y="1220" as="targetPoint" />
            <Array as="points" />
          </mxGeometry>
        </mxCell>
        <mxCell id="MEvPqugxAyHAMDOJD42g-30" value="" style="shape=flexArrow;endArrow=classic;html=1;rounded=0;exitX=1;exitY=0.5;exitDx=0;exitDy=0;endWidth=63;endSize=7.25;width=48;fontColor=#000000;labelBorderColor=#FFFFFF;fontSize=40;fontFamily=宋体;entryX=0;entryY=0.5;entryDx=0;entryDy=0;" edge="1" parent="1" source="aaDHrNwLbiFYx0zAx5dH-17" target="MEvPqugxAyHAMDOJD42g-25">
          <mxGeometry width="50" height="50" relative="1" as="geometry">
            <mxPoint x="401" y="1230" as="sourcePoint" />
            <mxPoint x="490" y="1230" as="targetPoint" />
            <Array as="points" />
          </mxGeometry>
        </mxCell>
        <mxCell id="MEvPqugxAyHAMDOJD42g-31" value="" style="shape=flexArrow;endArrow=classic;html=1;rounded=0;exitX=1;exitY=0.5;exitDx=0;exitDy=0;endWidth=63;endSize=7.25;width=48;fontColor=#000000;labelBorderColor=#FFFFFF;fontSize=30;fontFamily=宋体;entryX=0;entryY=0.5;entryDx=0;entryDy=0;" edge="1" parent="1" source="aaDHrNwLbiFYx0zAx5dH-1" target="MEvPqugxAyHAMDOJD42g-28">
          <mxGeometry width="50" height="50" relative="1" as="geometry">
            <mxPoint x="411" y="1240" as="sourcePoint" />
            <mxPoint x="500" y="1240" as="targetPoint" />
            <Array as="points" />
          </mxGeometry>
        </mxCell>
        <mxCell id="aaDHrNwLbiFYx0zAx5dH-1" value="" style="rounded=0;whiteSpace=wrap;html=1;dashed=1;dashPattern=8 8;fillColor=none;fontColor=#000000;labelBorderColor=#FFFFFF;fontSize=30;fontFamily=宋体;" parent="1" vertex="1">
          <mxGeometry x="70" y="112.03" width="309.84" height="165.94" as="geometry" />
        </mxCell>
        <mxCell id="aaDHrNwLbiFYx0zAx5dH-7" value="&lt;font style=&quot;font-size: 40px;&quot;&gt;第1章&lt;/font&gt;&lt;div style=&quot;font-size: 40px;&quot;&gt;&lt;font style=&quot;font-size: 40px;&quot;&gt;绪论&lt;/font&gt;&lt;/div&gt;" style="rounded=0;whiteSpace=wrap;html=1;fillColor=none;strokeColor=none;fontColor=#000000;labelBorderColor=#FFFFFF;fontSize=30;fontFamily=宋体;" parent="1" vertex="1">
          <mxGeometry x="149.99870967741936" y="160.00444444444443" width="140.32258064516125" height="64.44444444444444" as="geometry" />
        </mxCell>
        <mxCell id="MEvPqugxAyHAMDOJD42g-41" style="edgeStyle=orthogonalEdgeStyle;rounded=0;orthogonalLoop=1;jettySize=auto;html=1;entryX=0;entryY=0.5;entryDx=0;entryDy=0;" edge="1" parent="1" source="aaDHrNwLbiFYx0zAx5dH-51" target="aaDHrNwLbiFYx0zAx5dH-53">
          <mxGeometry relative="1" as="geometry" />
        </mxCell>
        <mxCell id="aaDHrNwLbiFYx0zAx5dH-51" value="S市便利店&lt;div&gt;数据收集&lt;/div&gt;" style="rounded=0;whiteSpace=wrap;html=1;fillColor=none;strokeColor=default;fontColor=#000000;labelBorderColor=#FFFFFF;fontSize=40;fontFamily=宋体;horizontal=1;verticalAlign=top;textDirection=rtl;" parent="1" vertex="1">
          <mxGeometry x="917" y="665.5" width="220" height="115" as="geometry" />
        </mxCell>
        <mxCell id="MEvPqugxAyHAMDOJD42g-38" style="edgeStyle=orthogonalEdgeStyle;rounded=0;orthogonalLoop=1;jettySize=auto;html=1;entryX=0;entryY=0.5;entryDx=0;entryDy=0;" edge="1" parent="1" source="aaDHrNwLbiFYx0zAx5dH-52" target="aaDHrNwLbiFYx0zAx5dH-53">
          <mxGeometry relative="1" as="geometry" />
        </mxCell>
        <mxCell id="MEvPqugxAyHAMDOJD42g-61" style="edgeStyle=orthogonalEdgeStyle;rounded=0;orthogonalLoop=1;jettySize=auto;html=1;" edge="1" parent="1">
          <mxGeometry relative="1" as="geometry">
            <mxPoint x="1139.9999999999995" y="877.2857142857147" as="sourcePoint" />
            <mxPoint x="1183" y="1080.5882352941176" as="targetPoint" />
            <Array as="points">
              <mxPoint x="1183" y="877" />
            </Array>
          </mxGeometry>
        </mxCell>
        <mxCell id="aaDHrNwLbiFYx0zAx5dH-52" value="参数设定" style="rounded=0;whiteSpace=wrap;html=1;fillColor=none;strokeColor=default;fontColor=#000000;labelBorderColor=#FFFFFF;fontSize=40;fontFamily=宋体;" parent="1" vertex="1">
          <mxGeometry x="917" y="827.25" width="220" height="100" as="geometry" />
        </mxCell>
        <mxCell id="aaDHrNwLbiFYx0zAx5dH-53" value="基于克隆自适应蚁群优化算法的物流配送路径规划仿真实验" style="rounded=0;whiteSpace=wrap;html=1;fillColor=none;strokeColor=default;fontColor=#000000;labelBorderColor=#FFFFFF;fontSize=40;fontFamily=宋体;" parent="1" vertex="1">
          <mxGeometry x="1228.58" y="683" width="311" height="250" as="geometry" />
        </mxCell>
        <mxCell id="MEvPqugxAyHAMDOJD42g-58" style="edgeStyle=orthogonalEdgeStyle;rounded=0;orthogonalLoop=1;jettySize=auto;html=1;entryX=0;entryY=0.5;entryDx=0;entryDy=0;" edge="1" parent="1" source="MEvPqugxAyHAMDOJD42g-46" target="aaDHrNwLbiFYx0zAx5dH-52">
          <mxGeometry relative="1" as="geometry" />
        </mxCell>
        <mxCell id="MEvPqugxAyHAMDOJD42g-59" style="edgeStyle=orthogonalEdgeStyle;rounded=0;orthogonalLoop=1;jettySize=auto;html=1;entryX=0;entryY=0.5;entryDx=0;entryDy=0;" edge="1" parent="1" source="MEvPqugxAyHAMDOJD42g-46" target="aaDHrNwLbiFYx0zAx5dH-51">
          <mxGeometry relative="1" as="geometry" />
        </mxCell>
        <mxCell id="MEvPqugxAyHAMDOJD42g-46" value="" style="shape=partialRectangle;whiteSpace=wrap;html=1;bottom=1;right=1;left=1;top=0;fillColor=none;routingCenterX=-0.5;rotation=-90;" vertex="1" parent="1">
          <mxGeometry x="696.25" y="782.75" width="172" height="44.5" as="geometry" />
        </mxCell>
        <mxCell id="aaDHrNwLbiFYx0zAx5dH-101" value="用户模块" style="rounded=0;whiteSpace=wrap;html=1;fillColor=none;strokeColor=default;fontColor=#000000;labelBorderColor=#FFFFFF;fontSize=40;fontFamily=宋体;" parent="1" vertex="1">
          <mxGeometry x="1144" y="1424" width="220" height="90" as="geometry" />
        </mxCell>
        <mxCell id="aaDHrNwLbiFYx0zAx5dH-109" style="edgeStyle=orthogonalEdgeStyle;rounded=0;orthogonalLoop=1;jettySize=auto;html=1;entryX=0;entryY=0.5;entryDx=0;entryDy=0;fontColor=#000000;labelBorderColor=#FFFFFF;fontSize=40;fontFamily=宋体;exitX=1;exitY=0.5;exitDx=0;exitDy=0;" parent="1" source="aaDHrNwLbiFYx0zAx5dH-101" target="aaDHrNwLbiFYx0zAx5dH-105" edge="1">
          <mxGeometry relative="1" as="geometry">
            <mxPoint x="1352" y="1448.5" as="sourcePoint" />
            <mxPoint x="1508" y="1603.5" as="targetPoint" />
          </mxGeometry>
        </mxCell>
        <mxCell id="aaDHrNwLbiFYx0zAx5dH-103" style="edgeStyle=orthogonalEdgeStyle;rounded=0;orthogonalLoop=1;jettySize=auto;html=1;entryX=0;entryY=0.5;entryDx=0;entryDy=0;fontColor=#000000;labelBorderColor=#FFFFFF;fontSize=40;fontFamily=宋体;" parent="1" source="aaDHrNwLbiFYx0zAx5dH-96" target="aaDHrNwLbiFYx0zAx5dH-101" edge="1">
          <mxGeometry relative="1" as="geometry" />
        </mxCell>
        <mxCell id="aaDHrNwLbiFYx0zAx5dH-91" value="路径规划&lt;div&gt;模块&lt;/div&gt;" style="rounded=0;whiteSpace=wrap;html=1;fillColor=none;strokeColor=default;fontColor=#000000;labelBorderColor=#FFFFFF;fontSize=40;fontFamily=宋体;" parent="1" vertex="1">
          <mxGeometry x="1143.9999999999995" y="1685" width="220" height="110" as="geometry" />
        </mxCell>
        <mxCell id="aaDHrNwLbiFYx0zAx5dH-107" style="edgeStyle=orthogonalEdgeStyle;rounded=0;orthogonalLoop=1;jettySize=auto;html=1;fontColor=#000000;labelBorderColor=#FFFFFF;fontSize=40;fontFamily=宋体;entryX=0;entryY=0.5;entryDx=0;entryDy=0;exitX=1;exitY=0.5;exitDx=0;exitDy=0;" parent="1" source="aaDHrNwLbiFYx0zAx5dH-91" target="aaDHrNwLbiFYx0zAx5dH-105" edge="1">
          <mxGeometry relative="1" as="geometry" />
        </mxCell>
        <mxCell id="aaDHrNwLbiFYx0zAx5dH-95" style="edgeStyle=orthogonalEdgeStyle;rounded=0;orthogonalLoop=1;jettySize=auto;html=1;entryX=0;entryY=0.5;entryDx=0;entryDy=0;fontColor=#000000;labelBorderColor=#FFFFFF;fontSize=40;fontFamily=宋体;exitX=1;exitY=0.5;exitDx=0;exitDy=0;" parent="1" source="aaDHrNwLbiFYx0zAx5dH-90" target="aaDHrNwLbiFYx0zAx5dH-91" edge="1">
          <mxGeometry relative="1" as="geometry" />
        </mxCell>
      </root>
    </mxGraphModel>
  </diagram>
</mxfile>
